{"title":"Crimes That Shook Australia - S02E07 - Hoddle Street Massacre","uid":15313690,"size":378859018,"categoryP":"video","categoryS":"tv_shows","magnet":"?xt=urn:btih:e19f29635969d065d4c8979c9b76063eae24d06b&amp;dn=Crimes+That+Shook+Australia+-+S02E07+-+Hoddle+Street+Massacre&amp;tr=udp%3A%2F%2Ftracker.leechers-paradise.org%3A6969&amp;tr=udp%3A%2F%2Fzer0day.ch%3A1337&amp;tr=udp%3A%2F%2Fopen.demonii.com%3A1337&amp;tr=udp%3A%2F%2Ftracker.coppersurfer.tk%3A6969&amp;tr=udp%3A%2F%2Fexodus.desync.com%3A6969","seeders":4,"leechers":1,"uploader":"Bullrout","files":1,"time":1468603306,"description":"Crimes That Shook Australia - S02E07 - Hoddle Street Massacre\r\n\r\nIn August 1997, Hoddle Street in Melbourne became the scene of utter carnage as ex-Army cadet, Julian Knight shot and killed seven people and injured nineteen. He was given 27 years minimum sentence and despite several legal petitions, the Victorian government has said it is unlikely he will be released.\r\n\r\n\r\nComplete name                            : Crimes That Shook Australia - S02E07 - Hoddle Street Massacre.mp4\r\nFormat                                   : MPEG-4\r\nFormat profile                           : Base Media / Version 2\r\nCodec ID                                 : mp42 (mp42/isom/avc1)\r\nFile size                                : 361 MiB\r\nDuration                                 : 45mn 34s\r\nOverall bit rate mode                    : Variable\r\nOverall bit rate                         : 1 109 Kbps\r\n\r\nVideo\r\nID                                       : 2\r\nFormat                                   : AVC\r\nFormat/Info                              : Advanced Video Codec\r\nFormat profile                           :   \r\nFormat settings, CABAC                   : Yes\r\nFormat settings, ReFrames                : 3 frames\r\nCodec ID                                 : avc1\r\nCodec ID/Info                            : Advanced Video Coding\r\nDuration                                 : 45mn 34s\r\nBit rate mode                            : Variable\r\nBit rate                                 : 977 Kbps\r\nMaximum bit rate                         : 1 000 Kbps\r\nWidth                                    : 720 pixels\r\nHeight                                   : 404 pixels\r\nDisplay aspect ratio                     : 16:9\r\nOriginal display aspect ratio            : 16:9\r\nFrame rate mode                          : Constant\r\nFrame rate                               : 25.000 fps\r\nStandard                                 : PAL\r\nColor space                              : YUV\r\nChroma subsampling                       : 4:2:0\r\nBit depth                                : 8 bits\r\nScan type                                : Progressive\r\nBits/(Pixel*Frame)                       : 0.134\r\nStream size                              : 319 MiB (88%)\r\nWriting library                          : x264 core 112\r\nColor range                              : Limited\r\nColor primaries                          : BT.601 PAL\r\nTransfer characteristics                 : BT.470 System B, BT.470 System G\r\nMatrix coefficients                      : BT.601\r\n\r\nAudio\r\nID                                       : 1\r\nFormat                                   : AAC\r\nFormat/Info                              : Advanced Audio Codec\r\nFormat profile                           : LC\r\nCodec ID                                 : 40\r\nDuration                                 : 45mn 34s\r\nBit rate mode                            : Variable\r\nBit rate                                 : 128 Kbps\r\nMaximum bit rate                         : 576 Kbps\r\nChannel(s)                               : 2 channels\r\nChannel positions                        : Front: L R\r\nSampling rate                            : 48.0 KHz\r\nFrame rate                               : 46.875 fps (1024 spf)\r\nCompression mode                         : Lossy\r\nStream size                              : 41.7 MiB (12%)","torrent":{"xt":"urn:btih:e19f29635969d065d4c8979c9b76063eae24d06b","amp;dn":"Crimes+That+Shook+Australia+-+S02E07+-+Hoddle+Street+Massacre","amp;tr":["udp%3A%2F%2Ftracker.leechers-paradise.org%3A6969","udp%3A%2F%2Fzer0day.ch%3A1337","udp%3A%2F%2Fopen.demonii.com%3A1337","udp%3A%2F%2Ftracker.coppersurfer.tk%3A6969","udp%3A%2F%2Fexodus.desync.com%3A6969"],"infoHash":"e19f29635969d065d4c8979c9b76063eae24d06b","infoHashBuffer":{"type":"Buffer","data":[225,159,41,99,89,105,208,101,212,200,151,156,155,118,6,62,174,36,208,107]},"announce":[],"urlList":[]}}